<svg width="50" height="50" viewBox="0 0 50 50" fill="none" xmlns="http://www.w3.org/2000/svg">
<path d="M18.9776 37.9023L18.7313 37.4672L18.9776 37.9023C19.1567 37.801 19.3002 37.6572 19.4623 37.4947C19.4731 37.4838 19.4841 37.4729 19.4951 37.4619L19.4951 37.4618L36.4392 20.5178L36.4625 20.4945C36.7759 20.1811 37.046 19.9111 37.2331 19.6657C37.4337 19.4028 37.5856 19.1104 37.5856 18.75C37.5856 18.3896 37.4337 18.0972 37.2331 17.8343C37.046 17.5889 36.7759 17.3189 36.4625 17.0055L36.4392 16.9822L33.0176 13.5607L32.9944 13.5374C32.6809 13.224 32.4109 12.9539 32.1656 12.7667C31.9026 12.5661 31.6102 12.4142 31.2498 12.4142C30.8895 12.4142 30.597 12.5661 30.3341 12.7667C30.0888 12.9539 29.8187 13.2239 29.5053 13.5374L29.4821 13.5607L12.538 30.5047L12.538 30.5048L12.8915 30.8583L12.538 30.5048C12.5269 30.5158 12.516 30.5267 12.5051 30.5375C12.3427 30.6997 12.1989 30.8432 12.0975 31.0222C11.9961 31.2012 11.9471 31.3984 11.8916 31.6211C11.8879 31.636 11.8842 31.651 11.8804 31.6662L10.1335 38.6536L10.1269 38.6803C10.0876 38.837 10.0457 39.0043 10.032 39.1449C10.0168 39.2996 10.0204 39.5607 10.2298 39.7701L10.5826 39.4172L10.2298 39.7701C10.4392 39.9795 10.7002 39.983 10.855 39.9679C10.9955 39.9541 11.1629 39.9122 11.3196 39.873L11.3462 39.8663L18.3337 38.1194C18.3488 38.1156 18.3638 38.1119 18.3787 38.1082C18.6014 38.0528 18.7986 38.0037 18.9776 37.9023Z" stroke="white"/>
<path d="M26.0415 15.6249L32.2915 11.4583L38.5415 17.7083L34.3748 23.9583L26.0415 15.6249Z" fill="white"/>
</svg>
