<svg width="50" height="50" viewBox="0 0 50 50" fill="none" xmlns="http://www.w3.org/2000/svg">
<circle cx="25.0002" cy="18.7499" r="3.66667" stroke="#FF0000" stroke-linecap="round"/>
<path d="M32.2412 16.9166C32.7275 16.0744 33.5283 15.4599 34.4677 15.2082C35.407 14.9565 36.4078 15.0883 37.25 15.5745C38.0922 16.0607 38.7067 16.8616 38.9584 17.8009C39.2101 18.7402 39.0783 19.7411 38.5921 20.5833C38.1059 21.4254 37.305 22.04 36.3657 22.2916C35.4263 22.5433 34.4255 22.4116 33.5833 21.9253C32.7412 21.4391 32.1266 20.6382 31.8749 19.6989C31.6232 18.7596 31.755 17.7588 32.2412 16.9166L32.2412 16.9166Z" stroke="#FF0000"/>
<path d="M11.4077 16.9166C11.894 16.0744 12.6948 15.4599 13.6342 15.2082C14.5735 14.9565 15.5743 15.0883 16.4165 15.5745C17.2587 16.0607 17.8732 16.8616 18.1249 17.8009C18.3766 18.7402 18.2448 19.7411 17.7586 20.5833C17.2724 21.4254 16.4715 22.04 15.5322 22.2916C14.5928 22.5433 13.592 22.4116 12.7498 21.9253C11.9077 21.4391 11.2931 20.6382 11.0414 19.6989C10.7898 18.7596 10.9215 17.7588 11.4077 16.9166L11.4077 16.9166Z" stroke="#FF0000"/>
<path d="M42.6248 33.3805L43.1202 33.3124L43.1202 33.3124L42.6248 33.3805ZM29.375 27.4697L29.0843 27.0628L28.552 27.4432L29.0588 27.857L29.375 27.4697ZM32.2185 33.3795L32.7149 33.3198L32.7149 33.3198L32.2185 33.3795ZM41.7083 33.8751H31.2917V34.8751H41.7083V33.8751ZM42.1295 33.4486C42.1583 33.6582 41.996 33.8751 41.7083 33.8751V34.8751C42.5251 34.8751 43.2417 34.197 43.1202 33.3124L42.1295 33.4486ZM34.375 26.5417C37.4903 26.5417 39.3304 27.7533 40.4422 29.1884C41.5729 30.6479 41.9831 32.3833 42.1295 33.4486L43.1202 33.3124C42.9628 32.167 42.5166 30.2331 41.2327 28.5759C39.9298 26.8942 37.7968 25.5417 34.375 25.5417V26.5417ZM29.6657 27.8765C30.7627 27.0927 32.2745 26.5417 34.375 26.5417V25.5417C32.0889 25.5417 30.3687 26.1453 29.0843 27.0628L29.6657 27.8765ZM29.0588 27.857C30.9632 29.4119 31.5485 31.9963 31.7221 33.4392L32.7149 33.3198C32.535 31.8243 31.9127 28.8962 29.6912 27.0824L29.0588 27.857ZM31.7221 33.4392C31.7483 33.6574 31.5778 33.8751 31.2917 33.8751V34.8751C32.1101 34.8751 32.8206 34.1982 32.7149 33.3198L31.7221 33.4392Z" fill="#FF0000"/>
<path d="M20.6249 27.4696L20.9411 27.8569L21.448 27.4431L20.9156 27.0628L20.6249 27.4696ZM7.3751 33.3805L6.87975 33.3124L6.87975 33.3124L7.3751 33.3805ZM17.7814 33.3795L18.2778 33.4392L18.2778 33.4392L17.7814 33.3795ZM15.625 26.5417C17.7254 26.5417 19.2372 27.0927 20.3343 27.8765L20.9156 27.0628C19.6313 26.1453 17.9111 25.5417 15.625 25.5417V26.5417ZM7.87045 33.4485C8.0168 32.3833 8.42699 30.6479 9.55778 29.1883C10.6696 27.7533 12.5097 26.5417 15.625 26.5417V25.5417C12.2032 25.5417 10.0702 26.8942 8.76728 28.5759C7.48333 30.2331 7.03712 32.167 6.87975 33.3124L7.87045 33.4485ZM8.29165 33.8751C8.00388 33.8751 7.84164 33.6582 7.87045 33.4485L6.87975 33.3124C6.75821 34.197 7.47484 34.8751 8.29165 34.8751V33.8751ZM18.7082 33.8751H8.29165V34.8751H18.7082V33.8751ZM18.7082 33.8751C18.4221 33.8751 18.2515 33.6574 18.2778 33.4392L17.2849 33.3198C17.1793 34.1982 17.8898 34.8751 18.7082 34.8751V33.8751ZM18.2778 33.4392C18.4514 31.9963 19.0367 29.4119 20.9411 27.8569L20.3087 27.0823C18.0872 28.8961 17.4648 31.8243 17.2849 33.3198L18.2778 33.4392Z" fill="#FF0000"/>
<path d="M25.0002 26.0417C30.7193 26.0417 31.9527 31.1683 32.2187 33.3795C32.2847 33.9278 31.8441 34.3751 31.2918 34.3751H18.7085C18.1562 34.3751 17.7157 33.9278 17.7816 33.3795C18.0476 31.1683 19.281 26.0417 25.0002 26.0417Z" stroke="#FF0000" stroke-linecap="round"/>
<path d="M38.5415 44.7917H43.2915C44.1199 44.7917 44.7915 44.1202 44.7915 43.2917V38.5417" stroke="#FF0000" stroke-linecap="round"/>
<path d="M38.5415 5.20825H43.2915C44.1199 5.20825 44.7915 5.87982 44.7915 6.70825V11.4583" stroke="#FF0000" stroke-linecap="round"/>
<path d="M11.4585 44.7917H6.7085C5.88007 44.7917 5.2085 44.1202 5.2085 43.2917V38.5417" stroke="#FF0000" stroke-linecap="round"/>
<path d="M11.4585 5.20825H6.7085C5.88007 5.20825 5.2085 5.87982 5.2085 6.70825V11.4583" stroke="#FF0000" stroke-linecap="round"/>
</svg>
